<svg width="13" height="13" viewBox="0 0 13 13" fill="none" xmlns="http://www.w3.org/2000/svg">
<path d="M0.656164 0.65829C1.43721 -0.122759 2.70354 -0.122759 3.48459 0.65829L6.31233 3.48603L9.14144 0.656908C9.92249 -0.12414 11.1888 -0.12414 11.9699 0.656908C12.7509 1.43796 12.7509 2.7043 11.9699 3.48534L9.14075 6.31445L11.9699 9.14357C12.7508 9.92463 12.7509 11.191 11.9699 11.972C11.1889 12.7529 9.92247 12.7529 9.14144 11.972L6.31233 9.14288L3.48459 11.9706C2.70356 12.7516 1.43721 12.7516 0.656164 11.9706C-0.124879 11.1896 -0.124867 9.92324 0.656164 9.14219L3.4839 6.31445L0.656164 3.48672C-0.124851 2.7057 -0.124782 1.43935 0.656164 0.65829Z" fill="white"/>
</svg>
