<svg width="100" height="100" viewBox="0 0 100 100" fill="none" xmlns="http://www.w3.org/2000/svg">
<g clip-path="url(#clip0_98_10)">
<path d="M50 0C77.6142 0 100 22.3858 100 50C100 77.6142 77.6142 100 50 100C22.3858 100 0 77.6142 0 50C0 22.3858 22.3858 0 50 0ZM78.6738 30.4482C75.7449 27.5193 70.9963 27.5193 68.0674 30.4482L39.752 58.7627L32.9102 51.9209C29.9814 48.9922 25.2326 48.9924 22.3037 51.9209C19.3751 54.8498 19.3749 59.5995 22.3037 62.5283L34.4502 74.6748C37.379 77.6031 42.1279 77.6031 45.0566 74.6748C45.1301 74.6013 45.1998 74.5239 45.2695 74.4482C45.326 74.3951 45.3842 74.3433 45.4395 74.2881L78.6738 41.0547C81.6027 38.1259 81.6024 33.3772 78.6738 30.4482Z" fill="#7762EF"/>
</g>
<defs>
<clipPath id="clip0_98_10">
<rect width="100" height="100" fill="white"/>
</clipPath>
</defs>
</svg>
