<svg width="13" height="13" viewBox="0 0 13 13" fill="none" xmlns="http://www.w3.org/2000/svg">
<path d="M0.856176 0.857508C1.63722 0.0764597 2.90355 0.0764597 3.6846 0.857508L6.51234 3.68524L9.34146 0.856127C10.1225 0.0750787 11.3888 0.0750787 12.1699 0.856127C12.9509 1.63718 12.9509 2.90352 12.1699 3.68455L9.34077 6.51367L12.1699 9.34279C12.9508 10.1238 12.9509 11.3902 12.1699 12.1712C11.3889 12.9521 10.1225 12.9521 9.34146 12.1712L6.51234 9.3421L3.6846 12.1698C2.90357 12.9509 1.63722 12.9508 0.856176 12.1698C0.0751334 11.3888 0.0751455 10.1225 0.856176 9.34141L3.68391 6.51367L0.856176 3.68594C0.0751617 2.90492 0.0752306 1.63857 0.856176 0.857508Z" fill="#790000"/>
</svg>
