<svg width="100" height="100" viewBox="0 0 100 100" fill="none" xmlns="http://www.w3.org/2000/svg">
<path d="M50 0C77.6142 0 100 22.3858 100 50C100 77.6142 77.6142 100 50 100C22.3858 100 0 77.6142 0 50C0 22.3858 22.3858 0 50 0ZM71.7607 27.9199C68.8318 24.991 64.0832 24.991 61.1543 27.9199L49.8408 39.2334L38.5273 27.9199C35.5984 24.991 30.8489 24.991 27.9199 27.9199C24.9914 30.8489 24.9912 35.5976 27.9199 38.5264L39.2344 49.8398L27.9199 61.1533C24.9912 64.0821 24.9914 68.8308 27.9199 71.7598C30.8489 74.6887 35.5984 74.6887 38.5273 71.7598L49.8408 60.4463L61.1543 71.7598C64.0832 74.6887 68.8318 74.6887 71.7607 71.7598C74.6896 68.8308 74.6896 64.0822 71.7607 61.1533L60.4473 49.8398L71.7607 38.5264C74.6896 35.5975 74.6896 30.8489 71.7607 27.9199Z" fill="#FF0000"/>
</svg>
