<svg width="100" height="100" viewBox="0 0 100 100" fill="none" xmlns="http://www.w3.org/2000/svg">
<g clip-path="url(#clip0_101_16)">
<path d="M50 3.95779C39.1958 3.80224 28.6964 7.53946 20.4203 14.4865C12.1443 21.4336 6.64424 31.1266 4.92527 41.7943C3.2063 52.462 5.38319 63.392 11.0581 72.5871C16.7331 81.7822 25.5272 88.6283 35.8333 91.8745C37.9167 92.2911 39.5833 89.9995 39.5833 88.1245V82.0828C27.0833 84.7911 23.125 76.0411 23.125 76.0411C22.3122 73.4038 20.7131 71.0777 18.5417 69.3745C14.375 66.4578 18.75 66.6661 18.75 66.6661C20.1413 66.7771 21.4875 67.2116 22.6811 67.935C23.8748 68.6584 24.8829 69.6507 25.625 70.8328C29.1667 76.8745 37.0833 76.2495 39.5833 75.2078C39.3645 73.1363 39.7251 71.0447 40.625 69.1661C26.4583 66.6661 18.75 58.3328 18.75 47.0828C18.601 41.2155 20.7719 35.5261 24.7917 31.2495C23.6719 29.1808 23.1382 26.8455 23.2484 24.4958C23.3585 22.1461 24.1083 19.871 25.4167 17.9161C27.9328 17.9656 30.4125 18.5268 32.7048 19.5655C34.9971 20.6042 37.0539 22.0986 38.75 23.9578C42.3676 22.7234 46.1799 22.1586 50 22.2911C53.8038 22.1732 57.602 22.6656 61.25 23.7495C62.9715 21.9376 65.0379 20.4881 67.3276 19.4864C69.6174 18.4846 72.0843 17.9507 74.5833 17.9161C75.8631 19.8769 76.6126 22.136 76.7586 24.4729C76.9047 26.8098 76.4423 29.1446 75.4167 31.2495C79.3607 35.559 81.4553 41.2445 81.25 47.0828C81.25 58.3328 73.5417 66.6661 59.375 69.1661C60.2749 71.0447 60.6355 73.1363 60.4167 75.2078V88.1245C60.4159 88.6349 60.5193 89.1402 60.7207 89.6093C60.922 90.0784 61.217 90.5015 61.5876 90.8526C61.9582 91.2037 62.3966 91.4754 62.8759 91.6511C63.3552 91.8268 63.8653 91.9028 64.375 91.8745C74.4357 88.3837 82.9412 81.4535 88.3923 72.3054C93.8434 63.1573 95.8902 52.3785 94.1718 41.8689C92.4534 31.3594 87.0802 21.7938 78.9993 14.8583C70.9184 7.9227 60.6486 4.0624 50 3.95779Z" fill="#1C1C1C"/>
</g>
<defs>
<clipPath id="clip0_101_16">
<rect width="100" height="100" fill="white"/>
</clipPath>
</defs>
</svg>
