<svg width="800" height="800" viewBox="0 0 800 800" fill="none" xmlns="http://www.w3.org/2000/svg">
<g clip-path="url(#clip0_101_23)">
<path d="M400 31.6662C313.567 30.4218 229.571 60.3196 163.363 115.896C97.1542 171.472 53.1539 249.017 39.4022 334.358C25.6504 419.7 43.0656 507.14 88.4651 580.701C133.865 654.262 204.217 709.031 286.667 735C303.333 738.333 316.667 720 316.667 705V656.666C216.667 678.333 185 608.333 185 608.333C178.498 587.234 165.705 568.626 148.333 555C115 531.666 150 533.333 150 533.333C161.131 534.22 171.9 537.696 181.449 543.484C190.998 549.271 199.063 557.21 205 566.666C233.333 615 296.667 610 316.667 601.666C314.916 585.094 317.801 568.362 325 553.333C211.667 533.333 150 466.666 150 376.666C148.808 329.728 166.175 284.212 198.333 250C189.375 233.45 185.106 214.768 185.987 195.97C186.868 177.172 192.866 158.972 203.333 143.333C223.462 143.729 243.3 148.218 261.638 156.528C279.976 164.837 296.431 176.793 310 191.666C338.941 181.791 369.439 177.273 400 178.333C430.431 177.39 460.816 181.329 490 190C503.772 175.504 520.303 163.909 538.621 155.895C556.939 147.881 576.674 143.61 596.667 143.333C606.905 159.019 612.901 177.092 614.069 195.787C615.238 214.482 611.539 233.161 603.333 250C634.885 284.476 651.643 329.96 650 376.666C650 466.666 588.333 533.333 475 553.333C482.199 568.362 485.084 585.094 483.333 601.666V705C483.327 709.083 484.155 713.126 485.765 716.879C487.376 720.631 489.736 724.016 492.701 726.824C495.666 729.633 499.173 731.807 503.007 733.213C506.841 734.618 510.922 735.226 515 735C595.486 707.074 663.53 651.632 707.139 578.447C750.747 505.262 767.121 419.032 753.374 334.955C739.627 250.879 696.642 174.354 631.994 118.87C567.347 63.3855 485.189 32.5031 400 31.6662Z" fill="white"/>
</g>
<defs>
<clipPath id="clip0_101_23">
<rect width="800" height="800" fill="white"/>
</clipPath>
</defs>
</svg>
