<svg width="41" height="40" viewBox="0 0 41 40" fill="none" xmlns="http://www.w3.org/2000/svg">
<path d="M30 31H41V34.8571C41 37.6974 38.5375 40 35.5 40C32.4625 40 30 37.6974 30 34.8571V31Z" fill="#949494"/>
<path d="M18 31H29V34.8571C29 37.6974 26.5375 40 23.5 40C20.4625 40 18 37.6974 18 34.8571V31Z" fill="#949494"/>
<path fill-rule="evenodd" clip-rule="evenodd" d="M29.2525 21.3996C29.9047 19.7241 30.2624 17.9035 30.2624 16C30.2624 7.71571 23.4879 1 15.1312 1C6.77445 1 0 7.71571 0 16C0 24.2843 6.77445 31 15.1312 31C15.1723 31 15.2135 30.9999 15.2546 30.9996H41V28.1741C41 24.4326 37.9405 21.3996 34.1662 21.3996H29.2525Z" fill="white"/>
</svg>
