<svg width="800" height="800" viewBox="0 0 800 800" fill="none" xmlns="http://www.w3.org/2000/svg">
<path d="M709.784 97.1367C611.352 137.905 189.288 312.729 72.672 360.377C-5.53602 390.897 40.248 419.513 40.248 419.513C40.248 419.513 107.008 442.401 164.24 459.569C221.464 476.737 251.984 457.665 251.984 457.665L520.944 276.449C616.32 211.593 593.432 265.001 570.536 287.897C520.944 337.497 438.92 415.697 370.248 478.649C339.728 505.353 354.984 528.241 368.344 539.689C417.936 581.657 553.376 667.497 561 673.217C601.296 701.745 680.56 742.809 692.616 656.049L740.304 356.569C755.568 255.473 770.824 162.001 772.728 135.297C778.456 70.4328 709.784 97.1367 709.784 97.1367Z" fill="white"/>
</svg>
